<mxfile host="app.diagrams.net" agent="Mozilla/5.0 (Windows NT 10.0; Win64; x64) AppleWebKit/537.36 (KHTML, like Gecko) Chrome/138.0.0.0 Safari/537.36" version="28.0.7">
  <diagram name="Page-1" id="LeKEd2vUjtyXNwrJezQC">
    <mxGraphModel dx="2008" dy="731" grid="1" gridSize="10" guides="1" tooltips="1" connect="1" arrows="1" fold="1" page="1" pageScale="1" pageWidth="850" pageHeight="1100" math="0" shadow="0">
      <root>
        <mxCell id="0" />
        <mxCell id="1" parent="0" />
        <mxCell id="PwbdAxppfqh_sGqRrNPf-1" value="START" style="ellipse;whiteSpace=wrap;html=1;fillColor=#d5e8d4;strokeColor=#82b366;gradientColor=#97d077;" vertex="1" parent="1">
          <mxGeometry x="220" y="70" width="120" height="80" as="geometry" />
        </mxCell>
        <mxCell id="PwbdAxppfqh_sGqRrNPf-2" value="NEW USER" style="rhombus;whiteSpace=wrap;html=1;fillColor=#dae8fc;strokeColor=#6c8ebf;gradientColor=#7ea6e0;" vertex="1" parent="1">
          <mxGeometry x="175" y="190" width="210" height="80" as="geometry" />
        </mxCell>
        <mxCell id="PwbdAxppfqh_sGqRrNPf-3" value="RECOGNITION THE FACE" style="shape=parallelogram;perimeter=parallelogramPerimeter;whiteSpace=wrap;html=1;fixedSize=1;fillColor=#fad9d5;strokeColor=#ae4132;" vertex="1" parent="1">
          <mxGeometry x="185" y="320" width="190" height="60" as="geometry" />
        </mxCell>
        <mxCell id="PwbdAxppfqh_sGqRrNPf-4" value="FACED RECOGNIZED" style="rhombus;whiteSpace=wrap;html=1;fillColor=#b1ddf0;strokeColor=#10739e;" vertex="1" parent="1">
          <mxGeometry x="175" y="430" width="210" height="80" as="geometry" />
        </mxCell>
        <mxCell id="PwbdAxppfqh_sGqRrNPf-5" value="STORED IN CSV FILE WITH REGISTRATION NUMBER ,DATE ,TIME AND ENTRY" style="shape=parallelogram;perimeter=parallelogramPerimeter;whiteSpace=wrap;html=1;fixedSize=1;fillColor=#f8cecc;gradientColor=#ea6b66;strokeColor=#b85450;" vertex="1" parent="1">
          <mxGeometry x="172.5" y="560" width="215" height="60" as="geometry" />
        </mxCell>
        <mxCell id="PwbdAxppfqh_sGqRrNPf-6" value="END" style="ellipse;whiteSpace=wrap;html=1;fillColor=#e6d0de;gradientColor=#d5739d;strokeColor=#996185;" vertex="1" parent="1">
          <mxGeometry x="220" y="680" width="120" height="80" as="geometry" />
        </mxCell>
        <mxCell id="PwbdAxppfqh_sGqRrNPf-7" value="STORE THE FACE DATA IN FOLDER WITH UR NAME" style="rounded=0;whiteSpace=wrap;html=1;fillColor=#f5f5f5;gradientColor=#b3b3b3;strokeColor=#666666;" vertex="1" parent="1">
          <mxGeometry x="590" y="320" width="190" height="60" as="geometry" />
        </mxCell>
        <mxCell id="PwbdAxppfqh_sGqRrNPf-8" value="GIVE YOUR PHOTOGRAPH" style="rounded=0;whiteSpace=wrap;html=1;fillColor=#f8cecc;gradientColor=#ea6b66;strokeColor=#b85450;" vertex="1" parent="1">
          <mxGeometry x="590" y="200" width="190" height="60" as="geometry" />
        </mxCell>
        <mxCell id="PwbdAxppfqh_sGqRrNPf-10" value="Text" style="text;html=1;align=center;verticalAlign=middle;resizable=0;points=[];autosize=1;strokeColor=none;fillColor=none;" vertex="1" parent="1">
          <mxGeometry x="-215" y="265" width="50" height="30" as="geometry" />
        </mxCell>
        <mxCell id="PwbdAxppfqh_sGqRrNPf-11" value="" style="endArrow=classic;html=1;rounded=0;exitX=0.5;exitY=1;exitDx=0;exitDy=0;entryX=0.5;entryY=0;entryDx=0;entryDy=0;" edge="1" parent="1" source="PwbdAxppfqh_sGqRrNPf-1" target="PwbdAxppfqh_sGqRrNPf-2">
          <mxGeometry width="50" height="50" relative="1" as="geometry">
            <mxPoint x="270" y="170" as="sourcePoint" />
            <mxPoint x="490" y="390" as="targetPoint" />
          </mxGeometry>
        </mxCell>
        <mxCell id="PwbdAxppfqh_sGqRrNPf-13" value="" style="endArrow=classic;html=1;rounded=0;exitX=0.5;exitY=1;exitDx=0;exitDy=0;entryX=0.5;entryY=0;entryDx=0;entryDy=0;" edge="1" parent="1" source="PwbdAxppfqh_sGqRrNPf-2" target="PwbdAxppfqh_sGqRrNPf-3">
          <mxGeometry width="50" height="50" relative="1" as="geometry">
            <mxPoint x="430" y="440" as="sourcePoint" />
            <mxPoint x="480" y="390" as="targetPoint" />
          </mxGeometry>
        </mxCell>
        <mxCell id="PwbdAxppfqh_sGqRrNPf-14" value="" style="endArrow=classic;html=1;rounded=0;exitX=0.5;exitY=1;exitDx=0;exitDy=0;entryX=0.5;entryY=0;entryDx=0;entryDy=0;" edge="1" parent="1" source="PwbdAxppfqh_sGqRrNPf-3" target="PwbdAxppfqh_sGqRrNPf-4">
          <mxGeometry width="50" height="50" relative="1" as="geometry">
            <mxPoint x="270" y="400" as="sourcePoint" />
            <mxPoint x="270" y="450" as="targetPoint" />
          </mxGeometry>
        </mxCell>
        <mxCell id="PwbdAxppfqh_sGqRrNPf-15" value="" style="endArrow=classic;html=1;rounded=0;exitX=0.5;exitY=1;exitDx=0;exitDy=0;entryX=0.5;entryY=0;entryDx=0;entryDy=0;" edge="1" parent="1" source="PwbdAxppfqh_sGqRrNPf-4" target="PwbdAxppfqh_sGqRrNPf-5">
          <mxGeometry width="50" height="50" relative="1" as="geometry">
            <mxPoint x="500" y="530" as="sourcePoint" />
            <mxPoint x="500" y="580" as="targetPoint" />
          </mxGeometry>
        </mxCell>
        <mxCell id="PwbdAxppfqh_sGqRrNPf-16" value="" style="endArrow=classic;html=1;rounded=0;exitX=0.5;exitY=1;exitDx=0;exitDy=0;entryX=0.5;entryY=0;entryDx=0;entryDy=0;" edge="1" parent="1" source="PwbdAxppfqh_sGqRrNPf-5" target="PwbdAxppfqh_sGqRrNPf-6">
          <mxGeometry width="50" height="50" relative="1" as="geometry">
            <mxPoint x="320" y="640" as="sourcePoint" />
            <mxPoint x="320" y="690" as="targetPoint" />
          </mxGeometry>
        </mxCell>
        <mxCell id="PwbdAxppfqh_sGqRrNPf-17" value="" style="endArrow=classic;html=1;rounded=0;exitX=0;exitY=0.5;exitDx=0;exitDy=0;entryX=1;entryY=0.5;entryDx=0;entryDy=0;" edge="1" parent="1" source="PwbdAxppfqh_sGqRrNPf-7" target="PwbdAxppfqh_sGqRrNPf-3">
          <mxGeometry width="50" height="50" relative="1" as="geometry">
            <mxPoint x="480" y="340" as="sourcePoint" />
            <mxPoint x="480" y="390" as="targetPoint" />
          </mxGeometry>
        </mxCell>
        <mxCell id="PwbdAxppfqh_sGqRrNPf-18" value="" style="endArrow=none;html=1;rounded=0;exitX=1;exitY=0.5;exitDx=0;exitDy=0;entryX=0;entryY=0.5;entryDx=0;entryDy=0;" edge="1" parent="1" source="PwbdAxppfqh_sGqRrNPf-2" target="PwbdAxppfqh_sGqRrNPf-8">
          <mxGeometry width="50" height="50" relative="1" as="geometry">
            <mxPoint x="430" y="440" as="sourcePoint" />
            <mxPoint x="480" y="390" as="targetPoint" />
          </mxGeometry>
        </mxCell>
        <mxCell id="PwbdAxppfqh_sGqRrNPf-19" value="" style="endArrow=none;html=1;rounded=0;exitX=1;exitY=0.5;exitDx=0;exitDy=0;" edge="1" parent="1" source="PwbdAxppfqh_sGqRrNPf-4">
          <mxGeometry width="50" height="50" relative="1" as="geometry">
            <mxPoint x="450" y="470" as="sourcePoint" />
            <mxPoint x="830" y="470" as="targetPoint" />
          </mxGeometry>
        </mxCell>
        <mxCell id="PwbdAxppfqh_sGqRrNPf-20" value="" style="endArrow=none;html=1;rounded=0;" edge="1" parent="1">
          <mxGeometry width="50" height="50" relative="1" as="geometry">
            <mxPoint x="830" y="470" as="sourcePoint" />
            <mxPoint x="830" y="160" as="targetPoint" />
          </mxGeometry>
        </mxCell>
        <mxCell id="PwbdAxppfqh_sGqRrNPf-21" value="" style="endArrow=none;html=1;rounded=0;" edge="1" parent="1">
          <mxGeometry width="50" height="50" relative="1" as="geometry">
            <mxPoint x="680" y="160" as="sourcePoint" />
            <mxPoint x="830" y="160" as="targetPoint" />
          </mxGeometry>
        </mxCell>
        <mxCell id="PwbdAxppfqh_sGqRrNPf-22" value="" style="endArrow=none;html=1;rounded=0;exitX=0.5;exitY=1;exitDx=0;exitDy=0;entryX=0.5;entryY=0;entryDx=0;entryDy=0;" edge="1" parent="1" source="PwbdAxppfqh_sGqRrNPf-8" target="PwbdAxppfqh_sGqRrNPf-7">
          <mxGeometry width="50" height="50" relative="1" as="geometry">
            <mxPoint x="690" y="280" as="sourcePoint" />
            <mxPoint x="895" y="280" as="targetPoint" />
          </mxGeometry>
        </mxCell>
        <mxCell id="PwbdAxppfqh_sGqRrNPf-23" value="" style="endArrow=classic;html=1;rounded=0;entryX=0.5;entryY=0;entryDx=0;entryDy=0;" edge="1" parent="1" target="PwbdAxppfqh_sGqRrNPf-8">
          <mxGeometry width="50" height="50" relative="1" as="geometry">
            <mxPoint x="685" y="160" as="sourcePoint" />
            <mxPoint x="650" y="390" as="targetPoint" />
          </mxGeometry>
        </mxCell>
        <mxCell id="PwbdAxppfqh_sGqRrNPf-24" value="Yes" style="text;whiteSpace=wrap;" vertex="1" parent="1">
          <mxGeometry x="470" y="200" width="90" height="40" as="geometry" />
        </mxCell>
        <mxCell id="PwbdAxppfqh_sGqRrNPf-25" value="No" style="text;whiteSpace=wrap;" vertex="1" parent="1">
          <mxGeometry x="470" y="470" width="50" height="40" as="geometry" />
        </mxCell>
      </root>
    </mxGraphModel>
  </diagram>
</mxfile>
